PathFileType	4	(X/Y/Z)	C:/Users/opensim2020/Desktop/walking_exp_matlab/subject02_walking09_straight_01.trc																																																																																																																												
DataRate	CameraRate	NumFrames	NumMarkers	Units	OrigDataRate	OrigDataStartFrame	OrigNumFrames																																																																																																																								
100	100	4	42	mm	100	562	293																																																																																																																								
Frame#	Time	LFHD			RFHD			LBHD			RBHD			C7			T10			CLAV			STRN			RBAK			LSHO			LUPA			LELB			LFRM			LWRA			LWRB			LFIN			RSHO			RUPA			RELB			RFRM			RWRA			RWRB			RFIN			LASI			RASI			LPSI			RPSI			LTHI			LKNE			LTIB			LANK			LHEE			LTOE			RTHI			RKNE			RTIB			RANK			RHEE			RTOE			*39			*40			*41		
		X1	Y1	Z1	X2	Y2	Z2	X3	Y3	Z3	X4	Y4	Z4	X5	Y5	Z5	X6	Y6	Z6	X7	Y7	Z7	X8	Y8	Z8	X9	Y9	Z9	X10	Y10	Z10	X11	Y11	Z11	X12	Y12	Z12	X13	Y13	Z13	X14	Y14	Z14	X15	Y15	Z15	X16	Y16	Z16	X17	Y17	Z17	X18	Y18	Z18	X19	Y19	Z19	X20	Y20	Z20	X21	Y21	Z21	X22	Y22	Z22	X23	Y23	Z23	X24	Y24	Z24	X25	Y25	Z25	X26	Y26	Z26	X27	Y27	Z27	X28	Y28	Z28	X29	Y29	Z29	X30	Y30	Z30	X31	Y31	Z31	X32	Y32	Z32	X33	Y33	Z33	X34	Y34	Z34	X35	Y35	Z35	X36	Y36	Z36	X37	Y37	Z37	X38	Y38	Z38	X39	Y39	Z39	X40	Y40	Z40	X41	Y41	Z41	X42	Y42	Z42
																																																																																																																															
37	0.36	-1050.6239	1756.73291	-1025.0835	-1065.56055	1732.06543	-880.68793	-1164.31018	1665.30969	-1050.56372	-1194.18823	1637.00208	-912.68408	-1219.49768	1529.52661	-973.93201	-1281.61218	1259.72681	-954.30078	-1081.84131	1458.75061	-992.92053	-1036.12439	1283.54382	-986.5553	-1277.17871	1361.271	-899.6781	-1163.58008	1503.41138	-1156.97559	-1197.64551	1304.99634	-1235.7063	-1211.45276	1164.61633	-1248.22095	-1198.27893	1032.1709	-1264.02466	-1130.10803	912.33075	-1241.11658	-1180.59741	909.60999	-1266.42761	-1154.48633	847.46753	-1272.04932	-1127.42065	1496.78442	-794.72699	-1147.1759	1312.01538	-698.39862	-1129.54163	1165.89441	-678.23016	-1093.76331	1051.24841	-660.133	-1041.15723	926.46222	-684.41046	-1083.1355	921.55579	-644.7937	-1041.46399	861.69788	-645.6676	-1082.41382	990.19226	-1102.59998	-1057.59338	975.79279	-848.90576	-1280.57153	1040.91687	-1004.13464	-1273.85754	1041.0946	-888.94647	-1099.43091	685.36835	-1173.17188	-1081.64001	496.13855	-1153.349	-1203.96631	356.16699	-1134.0083	-1291.18713	153.23691	-1096.14099	-1319.61719	137.84743	-1035.60742	-1180.9292	55.84565	-1141.09619	-1135.57898	667.31525	-793.20026	-1144.599	459.04727	-844.91852	-1188.77917	274.96146	-843.58844	-1214.50122	84.97473	-891.10986	-1254.60278	32.6086	-946.35345	-1061.49731	32.24956	-888.90149	-1168.40662	1803.40674	-944.60156	NaN	NaN	NaN	NaN	NaN	NaN
38	0.37	-1044.46838	1757.22034	-1025.36194	-1059.14575	1732.76782	-880.70142	-1157.79675	1665.34338	-1050.49792	-1187.47534	1637.20544	-912.5813	-1212.65405	1529.79199	-973.55695	-1274.52515	1259.97083	-953.67059	-1074.91052	1459.07178	-992.51746	-1028.99158	1283.89355	-985.56763	-1270.66431	1361.9231	-898.97595	-1157.15833	1503.38281	-1156.48828	-1192.35291	1305.20886	-1235.34534	-1207.02344	1164.94141	-1248.27759	-1195.22534	1032.40332	-1264.58386	-1128.04468	911.61053	-1242.43469	-1178.73901	909.76471	-1267.87231	-1153.45056	847.23364	-1272.96436	-1120.33936	1497.46326	-794.49255	-1138.62146	1312.68469	-697.65442	-1119.08179	1166.72156	-677.2016	-1080.31763	1052.24927	-660.13843	-1026.71802	928.68317	-683.72424	-1068.67529	923.14124	-644.18506	-1025.91479	863.9718	-645.23474	-1074.22241	991.22473	-1101.573	-1050.92017	975.27307	-847.67731	-1273.10608	1041.2561	-1004.09082	-1267.01746	1041.53369	-888.6897	-1088.32605	687.13617	-1173.09241	-1068.87329	497.09476	-1153.07336	-1186.03369	351.6163	-1134.86975	-1264.58789	144.82854	-1098.61426	-1292.76379	127.8821	-1038.23645	-1149.71375	53.06968	-1143.42944	-1131.65198	666.99762	-793.40796	-1142.62732	458.79007	-844.96552	-1187.80945	275.04068	-843.76086	-1214.34021	85.06515	-891.30011	-1253.68542	31.82047	-946.98486	-1061.71301	32.2248	-888.80359	-1162.1969	1803.32397	-944.60205	2845.11914	1034.16248	-3360.21655	NaN	NaN	NaN
39	0.38	-1038.21118	1757.59204	-1025.50769	-1052.76038	1733.37292	-880.8999	-1151.30774	1665.23999	-1050.45044	-1180.97095	1637.18762	-912.51917	-1205.71765	1529.9325	-973.29651	-1267.54297	1260.12976	-953.13556	-1067.82935	1459.21545	-992.1496	-1021.89954	1284.14551	-984.70435	-1263.1543	1362.14868	-898.35089	-1150.53845	1503.10986	-1156.10938	-1186.97424	1305.27637	-1234.78113	-1202.64209	1165.23975	-1248.37463	-1192.20044	1032.64075	-1265.01538	-1126.11194	911.08319	-1243.76282	-1176.78943	909.52301	-1268.63403	-1152.35022	846.92407	-1274.25342	-1113.34375	1498.07678	-794.11719	-1129.87488	1313.37561	-696.94342	-1108.64392	1167.453	-676.23425	-1068.40686	1053.60205	-659.09192	-1012.19385	930.9046	-682.73267	-1054.19397	924.578	-643.81805	-1010.39673	866.18445	-644.94604	-1065.84265	992.02881	-1100.83362	-1044.50037	974.45422	-846.98523	-1265.68677	1041.45764	-1004.12323	-1259.61914	1041.44019	-888.87781	-1077.43665	688.74951	-1173.03809	-1056.57385	497.90802	-1152.94116	-1168.0813	346.83136	-1135.87488	-1237.40564	136.36313	-1101.32849	-1265.16956	117.79644	-1041.17224	-1118.03479	50.45203	-1145.88965	-1127.76465	666.63953	-793.54913	-1140.84595	458.61871	-844.92493	-1186.78821	275.12439	-844.01727	-1214.39001	85.24005	-891.49274	-1253.90198	32.07303	-947.2688	-1061.73804	32.16639	-888.71155	-1156.21301	1803.6698	-945.01105	2845.93604	1034.0033	-3356.98584	NaN	NaN	NaN
40	0.39	-1031.97998	1757.85876	-1025.51624	-1046.30139	1733.93884	-881.18091	-1144.74194	1665.00562	-1050.47278	-1174.10059	1637.27734	-912.41827	-1198.71985	1529.99207	-973.01068	-1260.43628	1260.17493	-952.7207	-1060.82385	1459.31006	-991.80408	-1014.73236	1284.26404	-983.88477	-1256.05444	1362.19739	-897.76257	-1143.70715	1502.68164	-1155.75464	-1181.61218	1305.22009	-1234.47327	-1198.43396	1165.69141	-1248.60669	-1189.16064	1032.76917	-1265.85535	-1124.17322	910.34839	-1245.2168	-1175.04712	909.58411	-1269.94446	-1151.26868	846.55988	-1275.67834	-1106.51196	1498.61084	-793.87305	-1121.9187	1313.98962	-696.35663	-1098.1626	1168.16467	-675.41156	-1056.77124	1054.94702	-658.38959	-997.66357	933.42505	-682.16455	-1039.70435	926.03107	-643.52686	-994.86072	868.40668	-644.85535	-1057.61621	992.52588	-1100.14758	-1037.93481	973.77386	-845.86395	-1258.19958	1041.54785	-1004.34479	-1252.84802	1041.7467	-888.88135	-1066.90857	690.13422	-1173.15088	-1044.77966	498.39093	-1152.69556	-1150.01746	341.7789	-1137.14001	-1209.66956	128.03325	-1104.29651	-1237.15088	108.25597	-1044.5426	-1086.01086	48.08303	-1148.43677	-1123.87463	666.3324	-793.67139	-1138.80017	458.34415	-845.21027	-1185.88025	275.24911	-844.3161	-1214.2854	85.4374	-891.71844	-1254.20264	32.69806	-947.4826	-1061.78503	32.17153	-888.63177	-1150.01074	1803.74829	-945.35101	2845.17798	1034.04541	-3360.26099	NaN	NaN	NaN
